<svg width="32" height="32" viewBox="0 0 32 32" fill="none" xmlns="http://www.w3.org/2000/svg">
<path d="M26.6666 4H25.3333V2.66667C25.3333 1.93334 24.7333 1.33334 24 1.33334C23.2666 1.33334 22.6666 1.93334 22.6666 2.66667V4H9.33329V2.66667C9.33329 1.93334 8.73329 1.33334 7.99996 1.33334C7.26663 1.33334 6.66663 1.93334 6.66663 2.66667V4H5.33329C3.86663 4 2.66663 5.2 2.66663 6.66667V28C2.66663 29.4667 3.86663 30.6667 5.33329 30.6667H26.6666C28.1333 30.6667 29.3333 29.4667 29.3333 28V6.66667C29.3333 5.2 28.1333 4 26.6666 4ZM25.3333 28H6.66663C5.93329 28 5.33329 27.4 5.33329 26.6667V10.6667H26.6666V26.6667C26.6666 27.4 26.0666 28 25.3333 28Z" fill="#E75252"/>
</svg>
