<svg width="64" height="32" viewBox="0 0 64 32" fill="none" xmlns="http://www.w3.org/2000/svg">
<path d="M30.6667 4.00001H29.3333V2.66668C29.3333 1.93334 28.7333 1.33334 28 1.33334C27.2667 1.33334 26.6667 1.93334 26.6667 2.66668V4.00001H13.3333V2.66668C13.3333 1.93334 12.7333 1.33334 12 1.33334C11.2667 1.33334 10.6667 1.93334 10.6667 2.66668V4.00001H9.33333C7.86666 4.00001 6.66666 5.20001 6.66666 6.66668V28C6.66666 29.4667 7.86666 30.6667 9.33333 30.6667H30.6667C32.1333 30.6667 33.3333 29.4667 33.3333 28V6.66668C33.3333 5.20001 32.1333 4.00001 30.6667 4.00001ZM29.3333 28H10.6667C9.93333 28 9.33333 27.4 9.33333 26.6667V10.6667H30.6667V26.6667C30.6667 27.4 30.0667 28 29.3333 28Z" fill="#E75252"/>
<path d="M39.6133 12.9333C40.1333 13.4533 40.9733 13.4533 41.4933 12.9333L46.6667 7.77332V28C46.6667 28.7333 47.2667 29.3333 48 29.3333C48.7333 29.3333 49.3333 28.7333 49.3333 28V7.77332L54.5067 12.9467C55.0267 13.4667 55.8667 13.4667 56.3867 12.9467C56.9067 12.4267 56.9067 11.5867 56.3867 11.0667L48.9333 3.59999C48.4133 3.07999 47.5733 3.07999 47.0533 3.59999L39.6133 11.0533C39.0933 11.5733 39.0933 12.4267 39.6133 12.9333Z" fill="#E75252"/>
</svg>
