<svg width="64" height="32" viewBox="0 0 64 32" fill="none" xmlns="http://www.w3.org/2000/svg">
<path d="M56.4 19.0533C55.88 18.5333 55.04 18.5333 54.52 19.0533L49.3333 24.2267V4.00001C49.3333 3.26667 48.7333 2.66667 48 2.66667C47.2667 2.66667 46.6667 3.26667 46.6667 4.00001V24.24L41.4933 19.0667C40.9733 18.5467 40.1333 18.5467 39.6133 19.0667C39.0933 19.5867 39.0933 20.4267 39.6133 20.9467L47.0667 28.4C47.5867 28.92 48.4267 28.92 48.9467 28.4L56.4 20.9467C56.9067 20.4267 56.9067 19.5733 56.4 19.0533Z" fill="#E75252"/>
<path d="M30.6667 3.99999H29.3334V2.66666C29.3334 1.93333 28.7334 1.33333 28 1.33333C27.2667 1.33333 26.6667 1.93333 26.6667 2.66666V3.99999H13.3334V2.66666C13.3334 1.93333 12.7334 1.33333 12 1.33333C11.2667 1.33333 10.6667 1.93333 10.6667 2.66666V3.99999H9.33335C7.86669 3.99999 6.66669 5.19999 6.66669 6.66666V28C6.66669 29.4667 7.86669 30.6667 9.33335 30.6667H30.6667C32.1334 30.6667 33.3334 29.4667 33.3334 28V6.66666C33.3334 5.19999 32.1334 3.99999 30.6667 3.99999ZM29.3334 28H10.6667C9.93335 28 9.33335 27.4 9.33335 26.6667V10.6667H30.6667V26.6667C30.6667 27.4 30.0667 28 29.3334 28Z" fill="#E75252"/>
</svg>
