<svg width="100" height="88" viewBox="0 0 100 88" fill="none" xmlns="http://www.w3.org/2000/svg">
<g clip-path="url(#clip0_26_1169)">
<path fill-rule="evenodd" clip-rule="evenodd" d="M49.6989 8.90723C53.7109 4.57681 56.4616 0.849247 62.5895 0.102037C74.056 -1.27351 84.6761 11.0385 78.8656 23.1127C77.238 26.5601 73.8444 30.6612 70.1172 34.6775C66.0319 39.0589 61.5072 43.4148 58.3415 46.7008L49.6989 55.6418L42.5618 48.4669C33.9681 39.84 19.9626 28.9715 19.5313 15.5132C19.1813 6.08821 26.3102 0.0425999 34.5133 0.152983C41.8376 0.254875 44.9219 4.05885 49.6989 8.90723V8.90723ZM39.0137 26.6025C38.5221 26.0608 38.2492 25.3424 38.2515 24.5964C38.2539 23.8503 38.5314 23.1339 39.0264 22.5955C39.5214 22.0572 40.196 21.7383 40.9103 21.705C41.6246 21.6716 42.3238 21.9264 42.863 22.4164L47.0947 26.662L57.1533 16.8973L57.4951 17.169L57.1533 16.8973C57.1789 16.862 57.209 16.8306 57.2428 16.8039C57.7938 16.3273 58.4979 16.0874 59.2122 16.1331C59.5761 16.1494 59.9332 16.2407 60.2631 16.4018C60.5929 16.5628 60.8889 16.7904 61.1341 17.0714C61.3792 17.3525 61.5686 17.6813 61.6913 18.0391C61.814 18.3968 61.8676 18.7764 61.849 19.1559V19.1559C61.7997 19.8972 61.4792 20.5903 60.9538 21.0918L48.9827 32.767C48.9624 32.794 48.9376 32.817 48.9095 32.8349C48.3883 33.3152 47.713 33.5732 47.0178 33.5574C46.3226 33.5417 45.6586 33.2534 45.1579 32.75L39.0137 26.6025Z" fill="#E75252"/>
<path d="M3.32031 52.2623H7.91016H8.26823V48.8659C8.26823 48.8149 8.26823 48.764 8.26823 48.713C8.30802 47.8247 8.67447 46.9866 9.29136 46.373C9.90825 45.7594 10.7281 45.4176 11.5804 45.4185H16.1702H16.5283V42.0221C16.5305 41.1063 16.8801 40.2286 17.5008 39.5809C18.1215 38.9333 18.9627 38.5685 19.8405 38.5663H24.4141C25.2905 38.5729 26.1293 38.9392 26.7491 39.5858C27.3688 40.2325 27.7198 41.1076 27.7262 42.0221V84.0612C27.7198 84.9741 27.3683 85.8475 26.748 86.4914C26.1278 87.1354 25.289 87.4978 24.4141 87.5H19.7021C18.8755 87.4641 18.0917 87.1067 17.5049 86.4981C16.8911 85.8478 16.5438 84.9739 16.5365 84.0612V84.0612V81.1318C16.42 81.1402 16.303 81.1402 16.1865 81.1318H11.4421C10.6173 81.0907 9.83685 80.7304 9.25293 80.1213C8.94389 79.8031 8.699 79.4235 8.53269 79.005C8.36637 78.5865 8.28199 78.1375 8.28451 77.6844V73.7276H7.92643H3.32845C2.89365 73.7291 2.46297 73.6397 2.06182 73.4647C1.66068 73.2897 1.2972 73.0327 0.992839 72.7087C0.68134 72.3945 0.433073 72.0187 0.262588 71.6031C0.0921023 71.1876 0.00282908 70.7407 0 70.2887V55.7266C0 54.8078 0.349818 53.9267 0.972497 53.277C1.59518 52.6273 2.43971 52.2623 3.32031 52.2623V52.2623ZM80.1514 41.6061H75.5127C75.432 41.6161 75.3572 41.6551 75.3011 41.7164C75.2338 41.7861 75.1958 41.8808 75.1953 41.9797V84.0612C75.199 84.1594 75.2366 84.2528 75.3011 84.3244C75.3708 84.3899 75.4598 84.4288 75.5534 84.4348H80.1921C80.2715 84.4207 80.3452 84.3822 80.4037 84.3244C80.4718 84.2546 80.5124 84.1607 80.5176 84.0612V84.0612C80.5176 70.0397 80.5176 56.0153 80.5176 41.9882C80.5178 41.9391 80.5085 41.8905 80.4904 41.8453C80.4722 41.8001 80.4455 41.7591 80.4118 41.7249C80.3802 41.6904 80.3424 41.6629 80.3004 41.6439C80.2585 41.625 80.2133 41.615 80.1676 41.6146L80.1514 41.6061ZM66.1784 58.8598V67.8179H34.3018V58.8513L66.1784 58.8598ZM96.6797 55.353H92.0899C92.0421 55.351 91.9945 55.359 91.9498 55.3765C91.9051 55.394 91.8641 55.4207 91.8294 55.4549C91.7731 55.5143 91.7385 55.5924 91.7318 55.6757V55.7266V70.2718C91.7438 70.3527 91.781 70.4273 91.8376 70.484C91.9066 70.5507 91.9959 70.5898 92.0899 70.5944H96.6797C96.728 70.5953 96.776 70.586 96.8207 70.567C96.8655 70.548 96.9061 70.5198 96.9401 70.484C97.0074 70.4144 97.0454 70.3197 97.0459 70.2208V70.2208V55.7266C97.0459 55.6275 97.0082 55.5325 96.941 55.4625C96.8739 55.3924 96.7828 55.353 96.6878 55.353H96.6797ZM92.0899 52.2623H96.6878C97.5643 52.269 98.4031 52.6352 99.0228 53.2819C99.6426 53.9285 99.9936 54.8037 100 55.7181V55.7181V70.2633C99.9936 71.1778 99.6426 72.0529 99.0228 72.6996C98.4031 73.3462 97.5643 73.7124 96.6878 73.7191H92.098H91.7399V77.6929C91.7365 78.6081 91.3853 79.4845 90.7633 80.1298C90.1408 80.7777 89.2988 81.1437 88.4196 81.1488H83.8216C83.7024 81.1575 83.5828 81.1575 83.4635 81.1488V84.0612C83.4539 84.9414 83.121 85.7842 82.5336 86.4161C81.9462 87.0479 81.1489 87.4207 80.306 87.4576H75.5697C74.6994 87.4558 73.8641 87.0993 73.2422 86.4641C72.6244 85.829 72.2707 84.966 72.2575 84.0612V42.0051C72.2542 41.5429 72.3397 41.0846 72.5088 40.6573C72.6779 40.2301 72.9273 39.8424 73.2422 39.5173C73.8244 38.9006 74.6104 38.5392 75.4395 38.5068H80.1758C81.0536 38.5091 81.8948 38.8739 82.5155 39.5215C83.1362 40.1691 83.4858 41.0468 83.488 41.9627V45.4015C83.607 45.3887 83.727 45.3887 83.846 45.4015H88.444C89.3223 45.4034 90.1644 45.7665 90.7878 46.412C91.0956 46.733 91.3396 47.1142 91.5058 47.5339C91.672 47.9535 91.7571 48.4033 91.7562 48.8574V52.2963L92.0899 52.2623ZM88.4115 48.4753H83.8216C83.7744 48.4735 83.7274 48.4824 83.6838 48.5015C83.6403 48.5206 83.6012 48.5493 83.5693 48.5857C83.5363 48.6186 83.5099 48.6581 83.4917 48.7019C83.4735 48.7456 83.464 48.7927 83.4635 48.8404V48.8404V77.7099C83.4635 77.8075 83.5001 77.9013 83.5655 77.9711C83.6309 78.0409 83.7199 78.0813 83.8135 78.0835H88.4115C88.4585 78.0837 88.505 78.0741 88.5484 78.0551C88.5917 78.0361 88.6309 78.0083 88.6637 77.9731C88.731 77.9034 88.7691 77.8088 88.7695 77.7099V48.8404C88.7691 48.7415 88.731 48.6469 88.6637 48.5772C88.633 48.5393 88.5942 48.5096 88.5503 48.4904C88.5065 48.4712 88.4589 48.4631 88.4115 48.4668V48.4753ZM19.5313 84.0612C19.5322 84.1096 19.5429 84.1572 19.5625 84.2011C19.5821 84.2449 19.6103 84.284 19.6452 84.3159C19.6984 84.3781 19.77 84.42 19.8486 84.4348H24.4141C24.4618 84.435 24.5091 84.4244 24.5526 84.4039C24.5961 84.3834 24.6349 84.3534 24.6663 84.3159C24.7004 84.282 24.7274 84.2411 24.7456 84.1958C24.7638 84.1505 24.7728 84.1018 24.7721 84.0527V41.9627C24.7739 41.9134 24.7653 41.8644 24.747 41.8189C24.7288 41.7735 24.7012 41.7327 24.6663 41.6995C24.597 41.6355 24.5066 41.602 24.4141 41.6061H19.8486C19.7547 41.6107 19.6653 41.6498 19.5964 41.7164C19.5305 41.7871 19.4927 41.8811 19.4906 41.9797V41.9797V84.0612H19.5313ZM16.569 77.7778V48.9083V48.8574C16.5641 48.7761 16.5291 48.7 16.4714 48.6451C16.4373 48.6093 16.3967 48.5811 16.352 48.5622C16.3072 48.5432 16.2592 48.5339 16.2109 48.5347H11.5804C11.4846 48.5384 11.3941 48.5811 11.3281 48.6536C11.271 48.71 11.2337 48.7847 11.2223 48.8659V48.9168V77.7863C11.2228 77.8852 11.2609 77.9799 11.3281 78.0495C11.3866 78.1074 11.4603 78.1458 11.5397 78.1599H16.1784C16.2622 78.1526 16.3416 78.1173 16.4047 78.0592C16.4677 78.001 16.5111 77.9232 16.5283 77.8373L16.569 77.7778ZM7.91016 55.353H3.31217C3.26517 55.3528 3.21861 55.3625 3.17527 55.3814C3.13192 55.4004 3.09269 55.4283 3.0599 55.4634C2.99263 55.5331 2.95459 55.6277 2.9541 55.7266V70.2718C2.95781 70.3699 2.99538 70.4634 3.0599 70.535C3.12962 70.6005 3.21854 70.6394 3.31217 70.6454H7.91016C8.00512 70.6454 8.0962 70.606 8.16335 70.5359C8.2305 70.4659 8.26823 70.3708 8.26823 70.2718V55.7181C8.26649 55.622 8.22847 55.5305 8.16244 55.4634C8.1302 55.4305 8.09203 55.4045 8.05013 55.387C8.00823 55.3695 7.96342 55.3608 7.91829 55.3615L7.91016 55.353Z" fill="#323232"/>
</g>
<defs>
<clipPath id="clip0_26_1169">
<rect width="100" height="87.5" fill="white"/>
</clipPath>
</defs>
</svg>
