<svg width="32" height="32" viewBox="0 0 32 32" fill="none" xmlns="http://www.w3.org/2000/svg">
  <path
    d="M20.1333 25.8267L21.4667 28.1467C20.1867 28.7333 18.7867 29.12 17.3333 29.2667V26.5733C18.32 26.4533 19.2533 26.2 20.1333 25.8267ZM5.42667 17.3333H2.73334C2.88 18.8 3.26667 20.1867 3.85334 21.4667L6.17334 20.1333C5.8 19.2533 5.54667 18.32 5.42667 17.3333ZM20.1333 6.17334L21.4667 3.85334C20.1867 3.26667 18.8 2.88 17.3333 2.73334V5.42667C18.32 5.54667 19.2533 5.8 20.1333 6.17334ZM26.5733 14.6667H29.2667C29.12 13.2 28.7333 11.8133 28.1467 10.5333L25.8267 11.8667C26.2 12.7467 26.4533 13.68 26.5733 14.6667ZM11.8667 25.8267L10.5333 28.1467C11.8133 28.7333 13.2133 29.12 14.6667 29.2667V26.5733C13.68 26.4533 12.7467 26.2 11.8667 25.8267ZM14.6667 5.42667V2.73334C13.2 2.88 11.8133 3.26667 10.5333 3.85334L11.8667 6.17334C12.7467 5.8 13.68 5.54667 14.6667 5.42667ZM24.48 9.56L26.8 8.21334C25.96 7.05334 24.9333 6.02667 23.7733 5.18667L22.4267 7.50667C23.2133 8.10667 23.8933 8.78667 24.48 9.56ZM6.17334 11.8667L3.85334 10.5333C3.26667 11.8133 2.88 13.2 2.73334 14.6667H5.42667C5.54667 13.68 5.8 12.7467 6.17334 11.8667ZM26.5733 17.3333C26.4533 18.32 26.2 19.2533 25.8267 20.1333L28.1467 21.4667C28.7333 20.1867 29.12 18.7867 29.2667 17.3333H26.5733V17.3333ZM22.44 24.48L23.7867 26.8C24.9467 25.96 25.9733 24.9333 26.8133 23.7733L24.4933 22.4267C23.8933 23.2133 23.2133 23.8933 22.44 24.48ZM9.56 7.52L8.22667 5.18667C7.05334 6.04 6.04 7.05334 5.2 8.22667L7.52 9.57334C8.10667 8.78667 8.78667 8.10667 9.56 7.52ZM7.52 22.44L5.2 23.7733C6.04 24.9333 7.06667 25.96 8.22667 26.8L9.57334 24.48C8.78667 23.8933 8.10667 23.2133 7.52 22.44ZM16 9.33334C15.2667 9.33334 14.6667 9.93334 14.6667 10.6667V15.4533C14.6667 16.16 14.9467 16.84 15.4533 17.3333L19.4533 21.3333C19.9733 21.8533 20.8133 21.8533 21.3333 21.3333C21.8533 20.8133 21.8533 19.9733 21.3333 19.4533L17.3333 15.4533V10.6667C17.3333 9.93334 16.7333 9.33334 16 9.33334Z"
    fill="#C0C0C0" />
</svg>
