<svg width="24" height="24" viewBox="0 0 24 24" fill="none" xmlns="http://www.w3.org/2000/svg">
<path fill-rule="evenodd" clip-rule="evenodd" d="M18.3476 3.06459C20.3642 3.06459 22 4.73737 22 6.79964C22 8.49905 20.89 9.93381 19.3698 10.3865C19.4365 12.1026 19.4577 13.9502 19.2135 15.6213C18.9515 17.4289 18.4062 18.9851 17.4313 20.1203C16.4124 21.3071 14.9752 22.0011 12.9814 22.0011C10.1347 22.0011 8.52497 20.7328 7.62165 18.9369C6.87945 17.4622 6.66461 15.6662 6.62392 13.9735C6.21701 13.6805 5.80848 13.281 5.40809 12.8067C4.82703 12.1159 4.24923 11.2554 3.73164 10.3433C3.58516 10.0836 3.57702 9.78068 3.68444 9.52602C3.65677 9.47109 3.6291 9.41783 3.60143 9.3629C2.4735 7.10423 1.73781 4.6425 2.08775 3.56726C2.25214 3.06126 2.64602 2.72837 3.22546 2.54361C3.69421 2.39548 4.30131 2.34554 5.01909 2.38216C5.08256 2.32391 5.15581 2.26731 5.24044 2.21405C5.33322 2.15413 5.42762 2.10753 5.52039 2.07257C6.4107 1.73469 7.32216 2.63516 6.912 3.56393C6.72646 3.98504 6.3163 4.2913 5.87521 4.27964C5.4618 4.26799 5.1379 3.99169 4.9019 3.66712L4.88725 3.63716C4.342 3.61553 3.90092 3.64882 3.58679 3.74868C3.39798 3.8086 3.28242 3.88017 3.25475 3.96173C3.00898 4.71573 3.69746 6.78798 4.69682 8.787C4.73751 8.86856 4.7782 8.95012 4.82052 9.03001C5.00607 9.10158 5.16883 9.2364 5.27625 9.42615C5.74175 10.2484 6.25282 11.0124 6.75575 11.6099C7.02105 11.9245 7.27659 12.1858 7.51259 12.3789C7.54352 12.3789 7.57444 12.3806 7.60374 12.3839C7.82835 12.2191 8.07738 11.9794 8.3378 11.6865C8.87003 11.0906 9.41039 10.3017 9.90193 9.45278C10.0094 9.26803 10.1689 9.13654 10.3512 9.06496C11.3961 7.08925 12.1497 4.97705 11.995 4.14482C11.9592 3.95508 11.7949 3.83191 11.5556 3.75035C11.2496 3.64549 10.8508 3.60387 10.4179 3.59222C10.4065 3.61719 10.3935 3.64216 10.3805 3.66879C10.1444 3.99336 9.82055 4.26966 9.40714 4.28131C8.96606 4.29296 8.55752 3.9867 8.37035 3.56559C7.96019 2.63682 8.87165 1.73635 9.76196 2.07257C9.85636 2.10753 9.94914 2.1558 10.0419 2.21405C10.1005 2.25067 10.1526 2.29062 10.2014 2.3289C10.8329 2.33056 11.4449 2.3805 11.9446 2.5536C12.6005 2.77997 13.0709 3.19275 13.2044 3.9118C13.4046 4.99536 12.6168 7.39052 11.4889 9.55931C11.5963 9.8173 11.5865 10.1219 11.4368 10.3832C10.8866 11.3336 10.2698 12.2274 9.65454 12.9165C9.24601 13.3742 8.82608 13.7537 8.40778 14.0184C8.44685 15.4631 8.62588 16.9545 9.20206 18.0996C9.81242 19.313 10.9387 20.1719 12.9749 20.1719C14.4055 20.1719 15.4049 19.7108 16.0836 18.9202C16.8079 18.078 17.2229 16.838 17.4394 15.3583C17.6624 13.8253 17.6429 12.0843 17.581 10.4548C15.9339 10.0953 14.6953 8.59559 14.6953 6.79964C14.6953 4.73571 16.3294 3.06459 18.3476 3.06459ZM17.5924 9.21809C17.6038 9.22142 17.6152 9.22475 17.6266 9.22975H17.6282L17.6396 9.23307L17.6526 9.2364L17.6852 9.24639L17.708 9.25305L17.7373 9.26137C17.7503 9.2647 17.7617 9.26803 17.7731 9.26969L17.8008 9.27635L17.8349 9.28301L17.861 9.288L17.9017 9.29632L17.9163 9.29965C17.931 9.30298 17.9456 9.30465 17.9619 9.30798L17.9798 9.3113C17.9961 9.31463 18.0123 9.3163 18.0302 9.31796H18.0335H18.0368C18.0547 9.31963 18.0709 9.32296 18.0888 9.32462L18.1019 9.32628C18.1198 9.32795 18.1377 9.32961 18.1539 9.33128H18.1621C18.1816 9.33294 18.2011 9.33461 18.2207 9.33461H18.2223C18.2418 9.33627 18.263 9.33627 18.2825 9.33627H18.2858H18.2874C18.3086 9.33627 18.3297 9.33627 18.3493 9.33627C18.3704 9.33627 18.3916 9.33627 18.4127 9.33627C18.4339 9.33627 18.4551 9.33461 18.4762 9.33461C18.4974 9.33294 18.5169 9.33128 18.5381 9.33128H18.5397C18.5592 9.32961 18.5788 9.32795 18.5983 9.32628H18.6015H18.6032C18.6227 9.32462 18.6439 9.32129 18.6634 9.31963C18.6829 9.3163 18.7025 9.31463 18.722 9.3113H18.7252H18.7269C18.7464 9.30798 18.7659 9.30465 18.7855 9.30132C18.805 9.29799 18.8245 9.29466 18.8424 9.28967H18.8457H18.8473H18.8489C18.8685 9.28634 18.8864 9.28134 18.9059 9.27635H18.9075H18.9092C18.9287 9.27136 18.9482 9.26636 18.9678 9.26137H18.9694C18.9873 9.25638 19.0052 9.25138 19.0231 9.24639L19.0329 9.24306C19.0508 9.23807 19.067 9.23307 19.0849 9.22642H19.0866H19.0882C19.1061 9.21976 19.124 9.21477 19.1419 9.20811H19.1452H19.1468C19.1647 9.20145 19.1826 9.19479 19.2005 9.18813H19.2021H19.2038C19.2217 9.18148 19.2412 9.17482 19.2591 9.1665H19.2607C19.2786 9.15984 19.2949 9.15152 19.3128 9.14486L19.3144 9.14319H19.3161C20.2064 8.75704 20.8297 7.85657 20.8297 6.80463C20.8297 5.40315 19.7181 4.26633 18.3476 4.26633C16.9772 4.26633 15.8655 5.40315 15.8655 6.80463C15.8655 7.91482 16.5621 8.85857 17.5338 9.20311L17.568 9.21477L17.5794 9.21809H17.5924ZM18.3476 5.41148C19.098 5.41148 19.7051 6.03232 19.7051 6.79964C19.7051 7.56695 19.098 8.18779 18.3476 8.18779C17.5973 8.18779 16.9902 7.56695 16.9902 6.79964C16.9902 6.03232 17.5973 5.41148 18.3476 5.41148Z" fill="#E75252"/>
</svg>
