<svg width="40" height="40" viewBox="0 0 40 40" fill="none" xmlns="http://www.w3.org/2000/svg">
  <path
    d="M16.6666 26.6667H23.3333C24.2499 26.6667 24.9999 25.9167 24.9999 25V16.6667H27.6499C29.1333 16.6667 29.8832 14.8667 28.8333 13.8167L21.1833 6.16667C20.5333 5.51667 19.4833 5.51667 18.8333 6.16667L11.1833 13.8167C10.1333 14.8667 10.8666 16.6667 12.3499 16.6667H14.9999V25C14.9999 25.9167 15.7499 26.6667 16.6666 26.6667ZM9.99992 30H29.9999C30.9166 30 31.6666 30.75 31.6666 31.6667C31.6666 32.5833 30.9166 33.3333 29.9999 33.3333H9.99992C9.08325 33.3333 8.33325 32.5833 8.33325 31.6667C8.33325 30.75 9.08325 30 9.99992 30Z"
    fill="#E75252" />
</svg>
